<svg id="visual" viewBox="0 0 900 600" width="900" height="600" xmlns="http://www.w3.org/2000/svg" xmlns:xlink="http://www.w3.org/1999/xlink" version="1.1"><rect x="0" y="0" width="900" height="600" fill="#FFF1E4"></rect><path d="M591 600L596.3 580C601.7 560 612.3 520 645 480C677.7 440 732.3 400 745.7 360C759 320 731 280 700 240C669 200 635 160 639.8 120C644.7 80 688.3 40 710.2 20L732 0L900 0L900 20C900 40 900 80 900 120C900 160 900 200 900 240C900 280 900 320 900 360C900 400 900 440 900 480C900 520 900 560 900 580L900 600Z" fill="#F7A221" stroke-linecap="round" stroke-linejoin="miter"></path></svg>